<svg xmlns="http://www.w3.org/2000/svg" width="20.824" height="19.089" viewBox="0 0 20.824 19.089"><defs><style>.a{fill:#fff;}</style></defs><g transform="translate(1.231 1.128)"><g transform="translate(-1.231 -1.128)"><circle class="a" cx="0.434" cy="0.434" r="0.434" transform="translate(1.735 1.735)"/><circle class="a" cx="0.434" cy="0.434" r="0.434" transform="translate(3.471 1.735)"/><circle class="a" cx="0.434" cy="0.434" r="0.434" transform="translate(5.206 1.735)"/><path class="a" d="M107.1,214.2h9.544a.434.434,0,0,0,0-.868H107.1a.434.434,0,0,0,0,.868Z" transform="translate(-102.328 -205.524)"/><path class="a" d="M112.306,341.333H107.1a.434.434,0,1,0,0,.868h5.206a.434.434,0,0,0,0-.868Z" transform="translate(-102.328 -328.318)"/><path class="a" d="M19.164,26.539c-.025,0-.05.006-.075.007V23.068a1.737,1.737,0,0,0-1.735-1.735H1.735A1.737,1.737,0,0,0,0,23.068V38.687a1.737,1.737,0,0,0,1.735,1.735H17.354a1.737,1.737,0,0,0,1.735-1.735V30.623l1.249-1.249h0a1.661,1.661,0,0,0-1.174-2.835ZM.868,23.068a.869.869,0,0,1,.868-.868H17.354a.869.869,0,0,1,.868.868V24.8H.868ZM18.221,38.687a.869.869,0,0,1-.868.868H1.735a.869.869,0,0,1-.868-.868V25.671H18.221v1.164a1.632,1.632,0,0,0-.232.19l-4.72,4.72h-8.5a.434.434,0,1,0,0,.868h7.8L12.156,34.7a.434.434,0,0,0,.425.519.443.443,0,0,0,.085-.008l2.168-.434a.431.431,0,0,0,.222-.119l3.165-3.164Zm-3.685-4.738-1.4.28.28-1.4,3.938-3.938,1.122,1.122Zm5.188-5.188-.636.636-1.122-1.122.636-.636a.793.793,0,0,1,1.122,1.122Z" transform="translate(0 -21.333)"/></g></g></svg>