<svg xmlns="http://www.w3.org/2000/svg" width="19.773" height="19.775" viewBox="0 0 19.773 19.775"><defs><style>.a{fill:#fff;}</style></defs><path class="a" d="M19.742,8.6l0,0L11.674.533A1.82,1.82,0,0,0,9.1.533L1.037,8.6,1.029,8.6A1.82,1.82,0,0,0,2.24,11.7l.056,0h.321v5.936a2.133,2.133,0,0,0,2.131,2.131H7.9a.579.579,0,0,0,.579-.579V14.541a.973.973,0,0,1,.972-.972h1.861a.973.973,0,0,1,.972.972V19.2a.579.579,0,0,0,.579.579h3.156a2.133,2.133,0,0,0,2.131-2.131V11.708h.3A1.821,1.821,0,0,0,19.742,8.6Zm-.82,1.754a.658.658,0,0,1-.468.194h-.877a.579.579,0,0,0-.579.579v6.516a.973.973,0,0,1-.972.972H13.448V14.541a2.133,2.133,0,0,0-2.131-2.131H9.456a2.133,2.133,0,0,0-2.131,2.131v4.075H4.748a.973.973,0,0,1-.972-.972V11.128a.579.579,0,0,0-.579-.579h-.89a.661.661,0,0,1-.456-1.129h0L9.919,1.352a.661.661,0,0,1,.936,0l8.065,8.064,0,0a.663.663,0,0,1,0,.935Zm0,0" transform="translate(-0.5 0.001)"/></svg>