<svg xmlns="http://www.w3.org/2000/svg" width="330" height="248" viewBox="0 0 330 248">
  <g fill="#5CE1E6">
    <path d="M50.9378571,136.985357 L223.810714,136.985357 C229.141373,136.985358 234.067104,134.141486 236.732433,129.525001 C239.397763,124.908515 239.397763,119.220771 236.732433,114.604285 C234.067104,109.9878 229.141373,107.143928 223.810714,107.143929 L50.9378571,107.143929 L70.2310714,87.8507143 C74.1325863,84.1096366 75.7056958,78.5510286 74.3432597,73.3202305 C72.9808235,68.0894324 68.8959247,64.0045337 63.6651266,62.6420975 C58.4343285,61.2796613 52.8757206,62.8527708 49.1346429,66.7542857 L4.34892857,111.54 C4.00714286,111.881786 3.67714286,112.247143 3.37071429,112.624286 L3.15857143,112.907143 C2.93464286,113.201786 2.71071429,113.484643 2.49857143,113.791071 L2.33357143,114.062143 C2.13321429,114.380357 1.93285714,114.710357 1.74428571,115.040357 L1.65,115.240714 C1.46142857,115.606071 1.28464286,115.971429 1.11964286,116.360357 L1.11964286,116.501786 C0.954642857,116.9025 0.801428571,117.315 0.683571429,117.680357 C0.683571429,117.680357 0.683571429,117.786429 0.683571429,117.845357 C0.565714286,118.257857 0.447857143,118.670357 0.365357143,119.094643 C0.365357143,119.224286 0.365357143,119.353929 0.365357143,119.483571 C0.306428571,119.837143 0.2475,120.190714 0.212142857,120.544286 C0.111217266,121.535652 0.111217266,122.534705 0.212142857,123.526071 C0.212142857,123.891429 0.306428571,124.245 0.377142857,124.598571 C0.377142857,124.716429 0.377142857,124.846071 0.377142857,124.975714 C0.459642857,125.4 0.5775,125.824286 0.695357143,126.236786 L0.695357143,126.39 C0.825,126.814286 0.978214286,127.226786 1.14321429,127.568571 L1.14321429,127.698214 C1.30821429,128.087143 1.485,128.4525 1.67357143,128.876786 L1.76785714,129.077143 C1.95642857,129.418929 2.15678571,129.737143 2.35714286,130.067143 L2.52214286,130.338214 C2.7225,130.644643 2.95821429,130.939286 3.18214286,131.233929 L3.39428571,131.516786 C3.70071429,131.893929 4.03071429,132.259286 4.3725,132.601071 L49.1582143,177.386786 C55.0180396,183.005645 64.2949267,182.908283 70.0355334,177.167676 C75.77614,171.42707 75.8735018,162.150182 70.2546429,156.290357 L50.9378571,136.985357 Z"/>
    <path d="M206.202857,0.0117761485 C165.51713,-0.00429984889 127.502186,20.26739 104.845714,54.0610714 C100.584419,60.8845375 102.499827,69.8577588 109.175821,74.3465702 C115.851815,78.8353817 124.884486,77.2234396 129.595714,70.7025 C152.190388,37.0111607 194.149558,22.0432824 232.966517,33.8275666 C271.783476,45.6118508 298.339871,81.3800936 298.390974,121.946373 C298.442077,162.512653 271.975882,198.34769 233.188737,210.229734 C194.401592,222.111779 152.404844,207.249663 129.725357,173.615357 C125.113681,166.780834 115.834703,164.978861 109.000179,169.590537 C102.165656,174.202213 100.363682,183.481191 104.975357,190.315714 C137.493482,238.544724 199.525711,257.127939 253.20443,234.721224 C306.88315,212.314509 337.293855,155.143517 325.872311,98.1083163 C314.450767,41.0731154 264.370423,0.0208015475 206.202857,0.0117761485 L206.202857,0.0117761485 Z"/>
  </g>
</svg>
