<?xml version="1.0" encoding="utf-8"?>
<!-- Generator: Adobe Illustrator 22.0.0, SVG Export Plug-In . SVG Version: 6.00 Build 0)  -->
<svg version="1.1" id="Capa_1" xmlns="http://www.w3.org/2000/svg" xmlns:xlink="http://www.w3.org/1999/xlink" x="0px" y="0px"
	 viewBox="0 0 512 512" style="enable-background:new 0 0 512 512;" xml:space="preserve">
<style type="text/css">
	.st0{fill:#8C785E;}
</style>
<path class="st0" d="M479.2,91.9H32.8C14.7,91.9,0,77.2,0,59.1s14.7-32.8,32.8-32.8h446.4c18.1,0,32.8,14.7,32.8,32.8
	S497.3,91.9,479.2,91.9z"/>
<path class="st0" d="M295.4,486.8H32.8C14.7,486.8,0,472.1,0,454s14.7-32.8,32.8-32.8h262.6c18.1,0,32.8,14.7,32.8,32.8
	S313.5,486.8,295.4,486.8z"/>
<path class="st0" d="M479.2,286.8H32.8C14.7,286.8,0,272.1,0,254s14.7-32.8,32.8-32.8h446.4c18.1,0,32.8,14.7,32.8,32.8
	C512,272.1,497.3,286.8,479.2,286.8z"/>
</svg>
