<svg xmlns="http://www.w3.org/2000/svg" xmlns:xlink="http://www.w3.org/1999/xlink" width="49.525" height="49.524" viewBox="0 0 49.525 49.524"><defs><style>.a{fill:#545454;}.b{fill:#fff;}.c{filter:url(#a);}</style><filter id="a" x="0" y="0" width="49.525" height="49.524" filterUnits="userSpaceOnUse"><feOffset dy="3" input="SourceAlpha"/><feGaussianBlur stdDeviation="3" result="b"/><feFlood flood-opacity="0.161"/><feComposite operator="in" in2="b"/><feComposite in="SourceGraphic"/></filter></defs><g transform="translate(-360.76 -210.88)"><circle class="a" cx="9.5" cy="9.5" r="9.5" transform="translate(375.603 222.603)"/><g transform="translate(369.76 216.88)"><g transform="translate(0 0)"><g class="c" transform="matrix(1, 0, 0, 1, -9, -6)"><path class="b" d="M26.913,4.616a15.761,15.761,0,1,0,0,22.3A15.788,15.788,0,0,0,26.913,4.616Zm-4.647,15.8a1.314,1.314,0,1,1-1.858,1.858l-4.645-4.647-4.644,4.645A1.314,1.314,0,1,1,9.26,20.412L13.9,15.767,9.259,11.121a1.314,1.314,0,1,1,1.858-1.858l4.645,4.645,4.645-4.645a1.314,1.314,0,0,1,1.858,1.858l-4.645,4.645Z" transform="translate(9 6)"/></g></g></g></g></svg>