<svg xmlns="http://www.w3.org/2000/svg" width="22.495" height="19.962" viewBox="0 0 22.495 19.962"><defs><style>.a{fill:#fff;stroke:#fff;stroke-width:0.2px;}</style></defs><g transform="translate(-45.516 -531.977)"><g transform="translate(55 538.927)"><path class="a" d="M11.942,164.842h-.355a.318.318,0,0,1-.3-.208c-.039-.1-.082-.2-.127-.3a.318.318,0,0,1,.065-.36l.253-.253a.971.971,0,0,0,0-1.368l-.912-.912a.971.971,0,0,0-1.369,0l-.253.253a.32.32,0,0,1-.36.065c-.1-.046-.2-.088-.3-.129a.317.317,0,0,1-.209-.3v-.355A.968.968,0,0,0,7.1,160H5.81a.968.968,0,0,0-.968.968v.355a.318.318,0,0,1-.209.3c-.1.039-.2.082-.3.127a.319.319,0,0,1-.36-.065l-.253-.253a.971.971,0,0,0-1.368,0l-.912.915a.971.971,0,0,0,0,1.369l.253.253a.318.318,0,0,1,.065.36c-.046.1-.088.2-.127.3a.317.317,0,0,1-.3.208H.968A.968.968,0,0,0,0,165.81V167.1a.968.968,0,0,0,.968.968h.355a.318.318,0,0,1,.3.208c.039.1.082.2.127.3a.318.318,0,0,1-.065.36l-.253.253a.971.971,0,0,0,0,1.368l.912.912a.971.971,0,0,0,1.369,0l.253-.253a.32.32,0,0,1,.36-.065c.1.046.2.088.3.129a.317.317,0,0,1,.211.3v.355a.968.968,0,0,0,.968.968H7.1a.968.968,0,0,0,.968-.968v-.355a.318.318,0,0,1,.209-.3c.1-.039.2-.082.3-.127a.319.319,0,0,1,.36.065l.253.253a.971.971,0,0,0,1.368,0l.912-.912a.971.971,0,0,0,0-1.369l-.253-.253a.318.318,0,0,1-.065-.36c.046-.1.088-.2.129-.3a.317.317,0,0,1,.3-.209h.355a.968.968,0,0,0,.968-.968V165.81A.968.968,0,0,0,11.942,164.842Zm.323,2.259a.323.323,0,0,1-.323.323h-.355a.972.972,0,0,0-.9.624q-.051.136-.111.267a.971.971,0,0,0,.194,1.083l.252.253a.323.323,0,0,1,0,.456h0l-.912.912a.323.323,0,0,1-.456,0l-.253-.253a.97.97,0,0,0-1.083-.194c-.087.04-.177.077-.266.111a.971.971,0,0,0-.624.9v.355a.323.323,0,0,1-.323.323H5.81a.323.323,0,0,1-.323-.323v-.355a.972.972,0,0,0-.624-.9q-.136-.051-.267-.111a.971.971,0,0,0-1.083.194l-.253.252a.323.323,0,0,1-.456,0h0l-.912-.911a.323.323,0,0,1,0-.456l.253-.253a.971.971,0,0,0,.194-1.083c-.04-.087-.077-.177-.111-.266a.971.971,0,0,0-.9-.625H.968a.323.323,0,0,1-.323-.323V165.81a.323.323,0,0,1,.323-.323h.355a.972.972,0,0,0,.9-.624q.051-.136.111-.267a.971.971,0,0,0-.194-1.083l-.254-.253a.323.323,0,0,1,0-.456h0l.912-.912a.323.323,0,0,1,.456,0l.253.253a.97.97,0,0,0,1.083.194c.087-.04.177-.077.266-.111a.971.971,0,0,0,.625-.9v-.355a.323.323,0,0,1,.323-.323H7.1a.323.323,0,0,1,.323.323v.355a.972.972,0,0,0,.624.9q.136.051.267.111a.97.97,0,0,0,1.083-.194l.253-.252a.325.325,0,0,1,.457,0l.912.912a.323.323,0,0,1,0,.456l-.253.253a.971.971,0,0,0-.194,1.083c.04.088.077.177.111.266a.971.971,0,0,0,.9.624h.355a.323.323,0,0,1,.323.323V167.1Z" transform="translate(0 -160)"/></g><g transform="translate(59 542.478)"><path class="a" d="M93.764,250.776c0-.077-.009-.155-.018-.231s-.023-.165-.04-.245c-.011-.053-.026-.1-.04-.157s-.038-.132-.061-.2c-.016-.045-.032-.089-.049-.134a2.868,2.868,0,0,0-.142-.3c0-.007-.007-.016-.011-.023a2.864,2.864,0,0,0-.29-.423l-.03-.034c-.045-.053-.09-.1-.138-.152-.025-.026-.052-.051-.078-.076l-.1-.088q-.059-.051-.12-.1l-.053-.039A2.884,2.884,0,0,0,90.865,248c-.032,0-.065,0-.1.006-.069,0-.138.006-.207.013l-.11.013a2.962,2.962,0,0,0-.313.058,2.907,2.907,0,0,0,0,5.629l.016,0a3.091,3.091,0,0,0,.338.065c.075.009.15.011.226.015.05,0,.1.01.149.01.092,0,.188-.006.285-.016.01,0,.021,0,.032,0,.078-.009.158-.02.239-.036.032-.006.062-.014.093-.021.057-.013.113-.027.171-.044s.089-.029.133-.045l.136-.05c.046-.017.084-.037.126-.057s.108-.049.161-.078h0a3.818,3.818,0,0,0,.827-.6,1.017,1.017,0,0,0,.173-.212,3.445,3.445,0,0,0,.486-1.327c.009-.062.017-.125.022-.188s.008-.117.009-.175c0-.018,0-.036,0-.054C93.77,250.862,93.766,250.82,93.764,250.776Zm-.643.211c0,.027,0,.054,0,.08-.006.078-.016.156-.029.235a2.264,2.264,0,0,1-1.134,1.582c-.04.021-.079.041-.119.059l-.027.013a2.33,2.33,0,0,1-.589.178l-.043.007c-.04.006-.08.011-.119.014s-.1.007-.158.008h-.067a2.251,2.251,0,0,1-.229-.014l-.039,0a2.4,2.4,0,0,1-.264-.05,2.259,2.259,0,0,1,0-4.377h0a2.333,2.333,0,0,1,.567-.071,2.22,2.22,0,0,1,.276.019l.073.011c.07.011.139.025.207.042l.066.017a2.274,2.274,0,0,1,.492.207l.074.045c.051.032.1.065.149.1.026.019.053.038.078.058a2.326,2.326,0,0,1,.182.161c.023.023.044.049.066.073.037.04.073.082.108.125s.047.061.069.092c.032.047.065.095.094.144l.049.08a2.216,2.216,0,0,1,.111.237c.013.032.024.065.035.1.021.059.039.119.055.18.008.032.017.061.024.092a2.27,2.27,0,0,1,.041.264c0,.024,0,.047,0,.071C93.122,250.838,93.123,250.912,93.12,250.987Z" transform="translate(-87.959 -248)"/></g><path class="a" d="M102.138,6.778h-1.015a.315.315,0,0,1-.3-.212,6.719,6.719,0,0,0-.362-.875.316.316,0,0,1,.062-.364l.72-.721a.968.968,0,0,0,0-1.369l-1.372-1.37a.968.968,0,0,0-1.369,0l-.719.719a.316.316,0,0,1-.364.062,6.705,6.705,0,0,0-.875-.364.315.315,0,0,1-.213-.3V.968A.968.968,0,0,0,95.36,0H93.424a.968.968,0,0,0-.968.968V1.983a.315.315,0,0,1-.212.3,6.727,6.727,0,0,0-.875.364A.315.315,0,0,1,91,2.586l-.721-.72a.97.97,0,0,0-1.369,0l-1.37,1.37a.968.968,0,0,0,0,1.369L88.6,5.666a.323.323,0,0,0,.457-.456L88,4.15a.323.323,0,0,1,0-.456l1.37-1.37a.323.323,0,0,1,.456,0l.721.72a.96.96,0,0,0,1.109.182,6.106,6.106,0,0,1,.791-.329.96.96,0,0,0,.652-.913V.968a.323.323,0,0,1,.323-.323H95.36a.323.323,0,0,1,.323.323V1.983a.96.96,0,0,0,.652.913,6.088,6.088,0,0,1,.791.329.962.962,0,0,0,1.109-.182l.721-.719a.323.323,0,0,1,.456,0l1.37,1.37a.323.323,0,0,1,0,.456l-.72.721a.961.961,0,0,0-.182,1.109,6.107,6.107,0,0,1,.329.791.96.96,0,0,0,.913.652h1.015a.323.323,0,0,1,.323.323V9.683a.323.323,0,0,1-.323.323h-1.015a.96.96,0,0,0-.913.652,6.083,6.083,0,0,1-.329.791.961.961,0,0,0,.182,1.109l.72.721a.323.323,0,0,1,0,.456l-1.37,1.37a.323.323,0,0,1-.456,0L97.9,14.047a.323.323,0,1,0-.464.449l.008.008,1.06,1.058a.968.968,0,0,0,1.369,0l1.37-1.37a.968.968,0,0,0,0-1.369l-.719-.72a.316.316,0,0,1-.062-.364,6.707,6.707,0,0,0,.364-.875.315.315,0,0,1,.3-.213h1.015a.968.968,0,0,0,.968-.968V7.746A.968.968,0,0,0,102.138,6.778Z" transform="translate(65.307 636.342) rotate(-101)"/><path class="a" d="M194.243,113.276a4.2,4.2,0,0,0-5.934,0,.323.323,0,0,0,.456.456,3.55,3.55,0,0,1,5.055,4.987l-.034.034a.323.323,0,0,0,.449.464l.008-.008A4.2,4.2,0,0,0,194.243,113.276Z" transform="translate(-21.745 752.036) rotate(-101)"/></g></svg>