<svg xmlns="http://www.w3.org/2000/svg" width="19.326" height="19.395" viewBox="0 0 19.326 19.395"><defs><style>.a{fill:none;stroke:#fff;}</style></defs><g transform="translate(-5.291 -33.349)"><circle class="a" cx="3.5" cy="3.5" r="3.5" transform="translate(7.795 33.849)"/><circle class="a" cx="2.5" cy="2.5" r="2.5" transform="translate(17.795 35.849)"/><path class="a" d="M126.939,239.9a6.282,6.282,0,0,0-4.845,1.147c-2.321,1.859-1.874,4.362-1.874,7.425a1.484,1.484,0,0,0,1.482,1.482c8.931,0,9.287.288,9.816-.885.174-.4.126-.271.126-4.065A5.13,5.13,0,0,0,126.939,239.9Z" transform="translate(-114.406 -197.734)"/><path class="a" d="M380.615,240.534a3.76,3.76,0,0,0-2.8.651c2.2,2.245,1.827,4.482,1.827,7.937,0,.183-.3.128,2.561.128a1.288,1.288,0,0,0,1.289-1.284v-4.577A2.868,2.868,0,0,0,380.615,240.534Z" transform="translate(-359.371 -198.385)"/></g></svg>