<svg xmlns="http://www.w3.org/2000/svg" width="15.758" height="18.888" viewBox="0 0 15.758 18.888"><defs><style>.a{fill:#fff;}</style></defs><g transform="translate(0 0)"><path class="a" d="M91.581,9.1A4.4,4.4,0,0,0,94.8,7.766a4.4,4.4,0,0,0,1.333-3.217A4.4,4.4,0,0,0,94.8,1.333a4.548,4.548,0,0,0-6.433,0,4.4,4.4,0,0,0-1.333,3.216,4.4,4.4,0,0,0,1.333,3.217A4.4,4.4,0,0,0,91.581,9.1ZM89.147,2.116a3.441,3.441,0,0,1,4.868,0,3.289,3.289,0,0,1,1.009,2.434,3.289,3.289,0,0,1-1.009,2.434,3.441,3.441,0,0,1-4.868,0,3.288,3.288,0,0,1-1.009-2.434,3.289,3.289,0,0,1,1.009-2.434Zm0,0" transform="translate(-83.821)"/><path class="a" d="M15.72,252.717a11.238,11.238,0,0,0-.153-1.193,9.4,9.4,0,0,0-.294-1.2,5.927,5.927,0,0,0-.493-1.119,4.218,4.218,0,0,0-.744-.969,3.279,3.279,0,0,0-1.069-.671,3.693,3.693,0,0,0-1.364-.247,1.385,1.385,0,0,0-.739.314c-.222.145-.481.312-.77.5a4.413,4.413,0,0,1-1,.439,3.87,3.87,0,0,1-2.438,0,4.4,4.4,0,0,1-1-.439c-.287-.183-.546-.35-.771-.5a1.383,1.383,0,0,0-.739-.314,3.689,3.689,0,0,0-1.364.247,3.277,3.277,0,0,0-1.069.671,4.219,4.219,0,0,0-.744.969,5.939,5.939,0,0,0-.493,1.119,9.427,9.427,0,0,0-.293,1.2,11.161,11.161,0,0,0-.153,1.194c-.025.361-.038.736-.038,1.115a3.136,3.136,0,0,0,.931,2.373,3.353,3.353,0,0,0,2.4.875h9.095a3.353,3.353,0,0,0,2.4-.875,3.135,3.135,0,0,0,.932-2.373c0-.381-.013-.756-.038-1.116ZM14.064,255.4a2.257,2.257,0,0,1-1.637.57H3.332a2.257,2.257,0,0,1-1.637-.57,2.048,2.048,0,0,1-.588-1.571c0-.354.012-.7.035-1.039a10.067,10.067,0,0,1,.138-1.075,8.312,8.312,0,0,1,.258-1.058,4.835,4.835,0,0,1,.4-.91,3.127,3.127,0,0,1,.547-.716,2.176,2.176,0,0,1,.711-.442,2.548,2.548,0,0,1,.872-.168c.039.021.108.06.22.133.228.148.49.317.78.5a5.485,5.485,0,0,0,1.251.559,4.976,4.976,0,0,0,3.119,0,5.492,5.492,0,0,0,1.252-.559c.3-.19.552-.354.779-.5.112-.073.181-.112.22-.133a2.55,2.55,0,0,1,.872.168,2.178,2.178,0,0,1,.711.442,3.12,3.12,0,0,1,.547.716,4.818,4.818,0,0,1,.4.91,8.293,8.293,0,0,1,.258,1.058,10.153,10.153,0,0,1,.138,1.075h0c.023.334.035.684.035,1.038a2.048,2.048,0,0,1-.588,1.571Zm0,0" transform="translate(0 -238.192)"/></g></svg>